# xmcd CD Database Entry
#
# Track frame offsets:
# 150
# 19950
# 41182
# 64740
# 92882
# 122562
# 140550
# 155772
# 172530
# 210535
#
# Disc length: 3082 seconds
#
# Revision: 3
# Processed by: cddbd v1.4PL0 Copyright (c) Steve Scherf et al.
# Submitted via: tcd 2.0b
#
DISCID=880c080a
DTITLE=David Broza -            - Stolen Kiss -            
DYEAR=1900
DGENRE=
TTITLE0=Homecoming -            
TTITLE1=Isadora -        
TTITLE2=Still ... -       
TTITLE3=High Noon -          
TTITLE4=Under the Sky -            
TTITLE5=She Walks In Beauty -            
TTITLE6=Good Day Comes -            
TTITLE7=Stolen Kiss -            
TTITLE8=Don't Give Them Guns -                  
TTITLE9=The Truth -              
EXTD=
EXTT0=
EXTT1=
EXTT2=
EXTT3=
EXTT4=
EXTT5=
EXTT6=
EXTT7=
EXTT8=
EXTT9=
PLAYORDER=
